<svg width="16" height="14" viewBox="0 0 16 14" fill="none" xmlns="http://www.w3.org/2000/svg">
<path d="M4.34375 0.0625C5.70312 0.0625 6.92188 0.613281 8 1.71484C9.07812 0.613281 10.2969 0.0625 11.6562 0.0625C12.8281 0.0625 13.8242 0.484375 14.6445 1.32812C15.4648 2.14844 15.875 3.13281 15.875 4.28125C15.875 4.75 15.7578 5.23047 15.5234 5.72266C15.2891 6.19141 15.0547 6.54297 14.8203 6.77734L14.4688 7.09375L8.42188 13.2109L8 13.6328L7.57812 13.2109L1.53125 7.09375C1.29688 6.88281 1.0625 6.61328 0.828125 6.28516C0.359375 5.58203 0.125 4.91406 0.125 4.28125C0.125 3.13281 0.535156 2.14844 1.35547 1.32812C2.17578 0.484375 3.17188 0.0625 4.34375 0.0625ZM4.34375 1.1875C3.5 1.1875 2.77344 1.49219 2.16406 2.10156C1.55469 2.71094 1.25 3.4375 1.25 4.28125C1.25 4.67969 1.41406 5.13672 1.74219 5.65234L2.30469 6.32031L8 12.0156L13.6953 6.32031C14.3984 5.54688 14.75 4.86719 14.75 4.28125C14.75 3.4375 14.4453 2.71094 13.8359 2.10156C13.2266 1.49219 12.5 1.1875 11.6562 1.1875C11.1641 1.1875 10.6484 1.32812 10.1094 1.60938C9.57031 1.86719 9.14844 2.13672 8.84375 2.41797L8.42188 2.80469L8 3.29688L7.57812 2.80469C7.46094 2.6875 7.29688 2.54688 7.08594 2.38281C6.89844 2.19531 6.51172 1.94922 5.92578 1.64453C5.36328 1.33984 4.83594 1.1875 4.34375 1.1875Z" fill="#F8FAFB"/>
</svg>
